<?xml version="1.0" standalone="no"?><!DOCTYPE svg PUBLIC "-//W3C//DTD SVG 1.1//EN" "http://www.w3.org/Graphics/SVG/1.1/DTD/svg11.dtd"><svg t="1604914426852" class="icon" viewBox="0 0 1024 1024" version="1.1" xmlns="http://www.w3.org/2000/svg" p-id="44184" xmlns:xlink="http://www.w3.org/1999/xlink" width="200" height="200"><defs><style type="text/css"></style></defs><path d="M937.642382 791.381333l-392.760889 224.597334c-18.033778 10.353778-40.220444 10.24-58.197333-0.113778l-395.377778-228.238222a58.424889 58.424889 0 0 1-29.184-50.346667L60.301938 284.728889c-0.113778-21.048889 11.150222-40.504889 29.411555-50.915556L482.417493 9.102222c18.033778-10.296889 40.220444-10.24 58.197334 0.113778l395.434666 228.238222c18.033778 10.410667 29.184 29.582222 29.240889 50.403556L967.110827 740.408889c0.113778 21.048889-11.150222 40.504889-29.411556 50.972444zM229.261938 512.625778a284.444444 284.444444 0 1 0 568.888889 0 284.444444 284.444444 0 0 0-568.888889 0z" fill="#694ED6" p-id="44185"></path><path d="M343.039716 517.688889a170.666667 170.666667 0 1 1 341.219555-10.183111 170.666667 170.666667 0 0 1-341.162667 10.126222z" fill="#694ED6" opacity=".4" p-id="44186"></path></svg>